<svg xmlns="http://www.w3.org/2000/svg" xmlns:xlink="http://www.w3.org/1999/xlink" width="150" zoomAndPan="magnify" viewBox="0 0 112.5 112.499997" height="150" preserveAspectRatio="xMidYMid meet" version="1.0"><defs><clipPath id="fcb87ff77f"><path d="M 38.003906 38.003906 L 73.84375 38.003906 L 73.84375 73.84375 L 38.003906 73.84375 Z M 38.003906 38.003906 " clip-rule="nonzero"/></clipPath></defs><path fill="#502d14" d="M 50.414062 65.539062 C 50.414062 65.753906 50.339844 65.933594 50.1875 66.082031 C 50.039062 66.234375 49.855469 66.308594 49.644531 66.308594 C 49.433594 66.308594 49.25 66.234375 49.101562 66.082031 C 48.953125 65.933594 48.875 65.753906 48.875 65.539062 C 48.875 65.328125 48.953125 65.148438 49.101562 64.996094 C 49.25 64.847656 49.433594 64.773438 49.644531 64.773438 C 49.855469 64.773438 50.039062 64.847656 50.1875 64.996094 C 50.339844 65.148438 50.414062 65.328125 50.414062 65.539062 Z M 50.414062 65.539062 " fill-opacity="1" fill-rule="nonzero"/><path fill="#502d14" d="M 63.023438 65.539062 C 63.023438 65.753906 62.949219 65.933594 62.800781 66.082031 C 62.648438 66.234375 62.46875 66.308594 62.257812 66.308594 C 62.042969 66.308594 61.863281 66.234375 61.714844 66.082031 C 61.5625 65.933594 61.488281 65.753906 61.488281 65.539062 C 61.488281 65.328125 61.5625 65.148438 61.714844 64.996094 C 61.863281 64.847656 62.042969 64.773438 62.257812 64.773438 C 62.46875 64.773438 62.648438 64.847656 62.800781 64.996094 C 62.949219 65.148438 63.023438 65.328125 63.023438 65.539062 Z M 63.023438 65.539062 " fill-opacity="1" fill-rule="nonzero"/><g clip-path="url(#fcb87ff77f)"><path fill="#502d14" d="M 55.996094 37.992188 C 46.0625 37.992188 38.007812 46.050781 38.007812 55.984375 C 38.007812 65.921875 46.0625 73.976562 55.996094 73.976562 C 65.933594 73.976562 73.988281 65.921875 73.988281 55.984375 C 73.988281 46.050781 65.933594 37.992188 55.996094 37.992188 Z M 51.082031 62.90625 L 62.257812 62.90625 C 63.710938 62.90625 64.890625 64.085938 64.890625 65.539062 C 64.890625 66.992188 63.710938 68.175781 62.257812 68.175781 C 60.804688 68.175781 59.621094 66.992188 59.621094 65.539062 C 59.621094 65.273438 59.660156 65.015625 59.734375 64.773438 L 52.164062 64.773438 C 52.238281 65.015625 52.28125 65.273438 52.28125 65.539062 C 52.28125 66.992188 51.097656 68.175781 49.644531 68.175781 C 48.191406 68.175781 47.011719 66.992188 47.011719 65.539062 C 47.011719 64.242188 47.953125 63.164062 49.191406 62.945312 L 48.726562 60.394531 L 48.722656 60.371094 L 46.265625 48.214844 L 44.007812 48.226562 L 43.996094 46.363281 L 47.792969 46.335938 L 48.710938 50.878906 L 65.722656 52.917969 L 63.5625 61.15625 L 50.761719 61.15625 Z M 51.082031 62.90625 " fill-opacity="1" fill-rule="nonzero"/></g></svg>