<svg xmlns="http://www.w3.org/2000/svg" xmlns:xlink="http://www.w3.org/1999/xlink" width="150" zoomAndPan="magnify" viewBox="0 0 112.5 112.499997" height="150" preserveAspectRatio="xMidYMid meet" version="1.0"><defs><clipPath id="9d5aee44b0"><path d="M 14.859375 30.566406 L 96.996094 30.566406 L 96.996094 81.34375 L 14.859375 81.34375 Z M 14.859375 30.566406 " clip-rule="nonzero"/></clipPath></defs><g clip-path="url(#9d5aee44b0)"><path fill="#4a9b36" d="M 97.054688 59.96875 L 93.789062 46.753906 C 93.714844 46.464844 93.453125 46.257812 93.15625 46.257812 L 88.832031 46.257812 L 88.085938 40.222656 C 88.050781 39.949219 87.84375 39.722656 87.570312 39.667969 L 78.792969 37.847656 L 79.332031 34.71875 C 79.511719 33.675781 79.226562 32.621094 78.546875 31.816406 C 77.878906 31.023438 76.90625 30.566406 75.875 30.566406 L 24.511719 30.566406 C 22.800781 30.566406 21.34375 31.804688 21.050781 33.503906 L 15.511719 65.714844 C 15.335938 66.753906 15.621094 67.8125 16.296875 68.613281 C 16.792969 69.203125 17.457031 69.601562 18.1875 69.769531 L 18.1875 71.859375 L 15.574219 71.859375 C 15.210938 71.859375 14.921875 72.152344 14.921875 72.511719 L 14.921875 75.816406 C 14.921875 76.175781 15.210938 76.46875 15.574219 76.46875 L 25.9375 76.46875 C 26.46875 78.769531 27.992188 80.617188 30.132812 81.179688 C 30.566406 81.292969 31.007812 81.347656 31.457031 81.347656 C 32.453125 81.347656 33.460938 81.066406 34.390625 80.519531 C 36.089844 79.519531 37.378906 77.734375 37.921875 75.621094 C 38.132812 74.792969 38.210938 73.964844 38.179688 73.164062 L 40.238281 73.164062 L 40.238281 75.816406 C 40.238281 76.175781 40.527344 76.46875 40.890625 76.46875 L 67.023438 76.46875 C 67.382812 76.46875 67.675781 76.175781 67.675781 75.816406 L 67.675781 73.164062 L 70.050781 73.164062 C 69.367188 76.882812 71.191406 80.433594 74.308594 81.253906 C 74.742188 81.367188 75.1875 81.421875 75.632812 81.421875 C 76.632812 81.421875 77.640625 81.140625 78.570312 80.59375 C 80.269531 79.59375 81.558594 77.808594 82.097656 75.695312 C 82.316406 74.839844 82.394531 73.988281 82.355469 73.164062 L 85.96875 73.164062 L 85.96875 76.640625 C 85.96875 77.003906 86.261719 77.292969 86.621094 77.292969 L 96.421875 77.292969 C 96.78125 77.292969 97.074219 77.003906 97.074219 76.640625 L 97.074219 60.125 C 97.074219 60.074219 97.066406 60.019531 97.054688 59.96875 Z M 95.769531 69.210938 L 95.769531 71.863281 L 92.988281 71.863281 L 92.988281 69.035156 L 95.769531 69.035156 Z M 86.847656 40.847656 L 87.515625 46.261719 L 77.347656 46.261719 L 78.570312 39.132812 Z M 16.796875 65.933594 L 22.335938 33.726562 C 22.523438 32.652344 23.4375 31.871094 24.511719 31.871094 L 50.773438 31.871094 C 50.785156 32.382812 50.929688 32.878906 51.242188 33.308594 C 51.71875 33.96875 52.460938 34.351562 53.269531 34.351562 L 56.316406 34.351562 C 56.84375 34.351562 57.296875 34.707031 57.371094 35.175781 C 57.421875 35.484375 57.339844 35.777344 57.148438 36.003906 C 56.960938 36.222656 56.691406 36.347656 56.40625 36.347656 L 49.144531 36.347656 C 47.984375 36.347656 46.976562 37.175781 46.800781 38.273438 C 46.691406 38.953125 46.882812 39.636719 47.320312 40.15625 C 47.757812 40.664062 48.390625 40.957031 49.054688 40.957031 L 55.5 40.957031 C 56.027344 40.957031 56.480469 41.3125 56.554688 41.78125 C 56.605469 42.089844 56.523438 42.382812 56.328125 42.613281 C 56.144531 42.832031 55.875 42.957031 55.589844 42.957031 L 41.707031 42.957031 C 39.996094 42.957031 38.605469 44.359375 38.605469 46.085938 C 38.605469 46.445312 38.894531 46.738281 39.257812 46.738281 C 39.617188 46.738281 39.90625 46.445312 39.90625 46.085938 C 39.90625 45.078125 40.714844 44.261719 41.707031 44.261719 L 55.589844 44.261719 C 56.253906 44.261719 56.886719 43.96875 57.324219 43.457031 C 57.761719 42.941406 57.953125 42.253906 57.84375 41.574219 C 57.667969 40.480469 56.660156 39.652344 55.5 39.652344 L 49.054688 39.652344 C 48.769531 39.652344 48.5 39.527344 48.3125 39.308594 C 48.121094 39.078125 48.039062 38.785156 48.085938 38.480469 C 48.164062 38.007812 48.617188 37.652344 49.140625 37.652344 L 56.40625 37.652344 C 57.070312 37.652344 57.703125 37.359375 58.140625 36.851562 C 58.578125 36.332031 58.769531 35.648438 58.660156 34.96875 C 58.484375 33.871094 57.476562 33.046875 56.316406 33.046875 L 53.269531 33.046875 C 52.882812 33.046875 52.527344 32.863281 52.296875 32.542969 C 52.152344 32.34375 52.082031 32.109375 52.070312 31.871094 L 75.875 31.871094 C 76.519531 31.871094 77.128906 32.15625 77.550781 32.65625 C 77.980469 33.164062 78.160156 33.835938 78.046875 34.496094 L 72.507812 66.703125 C 72.324219 67.777344 71.410156 68.558594 70.335938 68.558594 L 36.40625 68.558594 C 35.703125 67.785156 34.816406 67.21875 33.785156 66.949219 C 32.382812 66.582031 30.871094 66.8125 29.527344 67.605469 C 29.078125 67.871094 28.660156 68.191406 28.273438 68.558594 L 25.207031 68.558594 L 25.207031 66.730469 C 25.207031 65.726562 26.015625 64.90625 27.007812 64.90625 L 32.722656 64.90625 C 33.984375 64.90625 35.007812 63.875 35.007812 62.601562 C 35.007812 61.332031 33.984375 60.300781 32.722656 60.300781 L 31.089844 60.300781 C 30.550781 60.300781 30.109375 59.851562 30.109375 59.300781 C 30.109375 58.75 30.550781 58.300781 31.089844 58.300781 L 35.171875 58.300781 C 35.535156 58.300781 35.824219 58.007812 35.824219 57.648438 C 35.824219 57.289062 35.535156 56.996094 35.171875 56.996094 L 31.089844 56.996094 C 29.828125 56.996094 28.804688 58.027344 28.804688 59.300781 C 28.804688 60.570312 29.828125 61.601562 31.089844 61.601562 L 32.722656 61.601562 C 33.265625 61.601562 33.703125 62.050781 33.703125 62.601562 C 33.703125 63.15625 33.265625 63.601562 32.722656 63.601562 L 27.007812 63.601562 C 25.296875 63.601562 23.90625 65.007812 23.90625 66.730469 L 23.90625 68.558594 L 18.972656 68.558594 C 18.324219 68.558594 17.714844 68.273438 17.296875 67.773438 C 16.867188 67.265625 16.683594 66.59375 16.796875 65.933594 Z M 26.195312 71.863281 L 19.492188 71.863281 L 19.492188 69.863281 L 27.179688 69.863281 C 26.773438 70.46875 26.4375 71.140625 26.195312 71.863281 Z M 16.226562 75.164062 L 16.226562 73.164062 L 25.855469 73.164062 C 25.738281 73.84375 25.707031 74.515625 25.746094 75.164062 Z M 36.65625 75.296875 C 36.199219 77.078125 35.132812 78.570312 33.730469 79.398438 C 32.671875 80.019531 31.542969 80.199219 30.460938 79.914062 C 27.867188 79.234375 26.433594 76.054688 27.261719 72.828125 C 27.714844 71.050781 28.785156 69.554688 30.1875 68.730469 C 30.921875 68.296875 31.6875 68.078125 32.449219 68.078125 C 32.785156 68.078125 33.125 68.121094 33.453125 68.210938 C 36.046875 68.890625 37.484375 72.070312 36.65625 75.296875 Z M 37.3125 69.863281 L 70.335938 69.863281 C 70.765625 69.863281 71.179688 69.78125 71.566406 69.636719 C 71.078125 70.300781 70.679688 71.050781 70.394531 71.863281 L 38.027344 71.863281 C 37.882812 71.144531 37.640625 70.472656 37.3125 69.863281 Z M 66.371094 75.164062 L 41.542969 75.164062 L 41.542969 73.164062 L 66.371094 73.164062 Z M 80.835938 75.375 C 80.378906 77.152344 79.3125 78.644531 77.910156 79.472656 C 76.847656 80.09375 75.71875 80.273438 74.640625 79.992188 C 72.046875 79.3125 70.613281 76.132812 71.441406 72.902344 C 71.894531 71.125 72.964844 69.628906 74.367188 68.804688 C 75.097656 68.375 75.867188 68.15625 76.628906 68.15625 C 76.964844 68.15625 77.300781 68.199219 77.632812 68.285156 C 80.226562 68.964844 81.664062 72.144531 80.835938 75.375 Z M 77.964844 67.023438 C 76.5625 66.65625 75.050781 66.890625 73.707031 67.679688 C 73.636719 67.722656 73.570312 67.773438 73.503906 67.816406 C 73.632812 67.535156 73.738281 67.242188 73.792969 66.925781 L 77.121094 47.5625 L 92.644531 47.5625 L 95.769531 60.203125 L 95.769531 67.730469 L 92.335938 67.730469 C 91.976562 67.730469 91.6875 68.023438 91.6875 68.382812 L 91.6875 71.863281 L 82.1875 71.863281 C 81.683594 69.5 80.144531 67.59375 77.964844 67.023438 Z M 87.273438 75.992188 L 87.273438 73.164062 L 95.769531 73.164062 L 95.769531 75.992188 Z M 87.273438 75.992188 " fill-opacity="1" fill-rule="nonzero"/></g><path fill="#4a9b36" d="M 92.84375 61.363281 C 92.96875 61.210938 93.015625 61.011719 92.976562 60.820312 L 90.773438 50.082031 C 90.710938 49.78125 90.441406 49.5625 90.132812 49.5625 L 79.84375 49.5625 C 79.535156 49.5625 79.265625 49.78125 79.207031 50.082031 L 77 60.820312 C 76.960938 61.011719 77.011719 61.210938 77.132812 61.363281 C 77.257812 61.515625 77.441406 61.601562 77.636719 61.601562 L 92.335938 61.601562 C 92.535156 61.601562 92.71875 61.515625 92.84375 61.363281 Z M 90.011719 52.871094 L 86.585938 60.300781 L 83.9375 60.300781 L 88.292969 50.867188 L 89.601562 50.867188 Z M 79.855469 60.300781 L 84.207031 50.867188 L 86.855469 50.867188 L 82.503906 60.300781 Z M 80.375 50.867188 L 82.773438 50.867188 L 78.453125 60.222656 Z M 88.023438 60.300781 L 90.457031 55.027344 L 91.539062 60.300781 Z M 88.023438 60.300781 " fill-opacity="1" fill-rule="nonzero"/><path fill="#4a9b36" d="M 32.765625 70.929688 C 32.117188 70.761719 31.425781 70.863281 30.816406 71.222656 C 30.066406 71.664062 29.503906 72.445312 29.269531 73.363281 C 28.824219 75.089844 29.671875 76.808594 31.152344 77.199219 C 31.351562 77.25 31.558594 77.277344 31.765625 77.277344 C 32.21875 77.277344 32.679688 77.152344 33.101562 76.902344 C 33.847656 76.460938 34.414062 75.683594 34.648438 74.765625 C 35.09375 73.039062 34.246094 71.316406 32.765625 70.929688 Z M 33.386719 74.441406 C 33.234375 75.027344 32.890625 75.511719 32.4375 75.78125 C 32.21875 75.910156 31.875 76.042969 31.480469 75.9375 C 30.691406 75.730469 30.265625 74.71875 30.53125 73.6875 C 30.679688 73.101562 31.027344 72.613281 31.476562 72.347656 C 31.640625 72.25 31.875 72.152344 32.148438 72.152344 C 32.242188 72.152344 32.335938 72.164062 32.433594 72.191406 C 33.222656 72.394531 33.652344 73.40625 33.386719 74.441406 Z M 33.386719 74.441406 " fill-opacity="1" fill-rule="nonzero"/><path fill="#4a9b36" d="M 76.945312 71.003906 C 76.296875 70.835938 75.605469 70.941406 74.996094 71.300781 C 74.246094 71.738281 73.683594 72.519531 73.449219 73.4375 C 73.003906 75.164062 73.847656 76.886719 75.332031 77.273438 C 75.53125 77.324219 75.738281 77.351562 75.945312 77.351562 C 76.398438 77.351562 76.859375 77.226562 77.28125 76.976562 C 78.027344 76.539062 78.59375 75.757812 78.828125 74.839844 C 79.269531 73.113281 78.425781 71.390625 76.945312 71.003906 Z M 77.5625 74.515625 C 77.414062 75.101562 77.070312 75.589844 76.617188 75.855469 C 76.398438 75.984375 76.054688 76.113281 75.660156 76.011719 C 74.871094 75.804688 74.445312 74.792969 74.710938 73.761719 C 74.859375 73.175781 75.207031 72.6875 75.65625 72.421875 C 75.820312 72.328125 76.054688 72.226562 76.328125 72.226562 C 76.417969 72.226562 76.515625 72.238281 76.613281 72.265625 C 77.402344 72.472656 77.828125 73.480469 77.5625 74.515625 Z M 77.5625 74.515625 " fill-opacity="1" fill-rule="nonzero"/><path fill="#4a9b36" d="M 23.613281 62.417969 C 23.65625 62.425781 23.699219 62.429688 23.742188 62.429688 C 24.046875 62.429688 24.316406 62.214844 24.378906 61.902344 L 26.726562 50.042969 L 36.804688 50.042969 C 37.167969 50.042969 37.457031 49.75 37.457031 49.390625 C 37.457031 49.027344 37.167969 48.738281 36.804688 48.738281 L 26.984375 48.738281 L 28.359375 41.78125 L 37.621094 41.78125 C 37.984375 41.78125 38.273438 41.492188 38.273438 41.128906 C 38.273438 40.769531 37.984375 40.480469 37.621094 40.480469 L 27.824219 40.480469 C 27.511719 40.480469 27.242188 40.699219 27.183594 41.003906 L 23.101562 61.652344 C 23.03125 62.003906 23.261719 62.347656 23.613281 62.417969 Z M 23.613281 62.417969 " fill-opacity="1" fill-rule="nonzero"/><path fill="#4a9b36" d="M 49.054688 62.429688 L 57.222656 62.429688 C 57.582031 62.429688 57.875 62.136719 57.875 61.777344 C 57.875 61.417969 57.582031 61.125 57.222656 61.125 L 49.839844 61.125 L 50.976562 54.996094 L 58.039062 54.996094 C 58.398438 54.996094 58.691406 54.707031 58.691406 54.34375 C 58.691406 53.984375 58.398438 53.691406 58.039062 53.691406 L 51.21875 53.691406 L 52.046875 49.214844 L 58.855469 49.214844 C 59.214844 49.214844 59.507812 48.925781 59.507812 48.5625 C 59.507812 48.203125 59.214844 47.910156 58.855469 47.910156 L 51.503906 47.910156 C 51.191406 47.910156 50.921875 48.136719 50.863281 48.445312 L 48.414062 61.660156 C 48.378906 61.847656 48.429688 62.046875 48.554688 62.195312 C 48.679688 62.34375 48.863281 62.429688 49.054688 62.429688 Z M 49.054688 62.429688 " fill-opacity="1" fill-rule="nonzero"/><path fill="#4a9b36" d="M 60.488281 62.429688 L 68.65625 62.429688 C 69.015625 62.429688 69.308594 62.136719 69.308594 61.777344 C 69.308594 61.417969 69.015625 61.125 68.65625 61.125 L 61.273438 61.125 L 62.410156 54.996094 L 69.472656 54.996094 C 69.832031 54.996094 70.125 54.707031 70.125 54.34375 C 70.125 53.984375 69.832031 53.691406 69.472656 53.691406 L 62.652344 53.691406 L 63.480469 49.214844 L 70.289062 49.214844 C 70.648438 49.214844 70.941406 48.925781 70.941406 48.5625 C 70.941406 48.203125 70.648438 47.910156 70.289062 47.910156 L 62.9375 47.910156 C 62.625 47.910156 62.355469 48.136719 62.296875 48.445312 L 59.847656 61.660156 C 59.8125 61.847656 59.863281 62.046875 59.988281 62.195312 C 60.113281 62.34375 60.296875 62.429688 60.488281 62.429688 Z M 60.488281 62.429688 " fill-opacity="1" fill-rule="nonzero"/><path fill="#4a9b36" d="M 37.503906 62.417969 C 37.542969 62.425781 37.585938 62.429688 37.625 62.429688 C 37.933594 62.429688 38.207031 62.210938 38.265625 61.898438 L 39.542969 54.996094 L 42.03125 54.996094 L 45.195312 62.042969 C 45.304688 62.285156 45.542969 62.429688 45.789062 62.429688 C 45.878906 62.429688 45.96875 62.410156 46.054688 62.371094 C 46.386719 62.226562 46.53125 61.839844 46.382812 61.511719 L 43.460938 55 L 44.128906 55 C 45.863281 55 47.355469 53.691406 47.601562 51.957031 C 47.746094 50.929688 47.441406 49.898438 46.765625 49.117188 C 46.101562 48.351562 45.136719 47.914062 44.128906 47.914062 L 40.074219 47.914062 C 39.757812 47.914062 39.488281 48.136719 39.433594 48.445312 L 38.363281 54.203125 C 38.359375 54.21875 38.359375 54.234375 38.355469 54.246094 L 36.980469 61.660156 C 36.914062 62.011719 37.148438 62.351562 37.503906 62.417969 Z M 40.617188 49.214844 L 44.128906 49.214844 C 44.761719 49.214844 45.363281 49.492188 45.78125 49.972656 C 46.210938 50.464844 46.402344 51.121094 46.3125 51.773438 C 46.15625 52.867188 45.21875 53.691406 44.128906 53.691406 L 42.441406 53.691406 C 42.441406 53.691406 42.4375 53.691406 42.4375 53.691406 L 39.785156 53.691406 Z M 40.617188 49.214844 " fill-opacity="1" fill-rule="nonzero"/><path fill="#4a9b36" d="M 42.523438 37.652344 C 43.785156 37.652344 44.808594 36.621094 44.808594 35.347656 C 44.808594 34.078125 43.785156 33.046875 42.523438 33.046875 C 41.261719 33.046875 40.238281 34.078125 40.238281 35.347656 C 40.238281 36.621094 41.261719 37.652344 42.523438 37.652344 Z M 42.523438 34.351562 C 43.0625 34.351562 43.503906 34.796875 43.503906 35.347656 C 43.503906 35.898438 43.0625 36.347656 42.523438 36.347656 C 41.980469 36.347656 41.542969 35.898438 41.542969 35.347656 C 41.542969 34.796875 41.980469 34.351562 42.523438 34.351562 Z M 42.523438 34.351562 " fill-opacity="1" fill-rule="nonzero"/></svg>