<svg xmlns="http://www.w3.org/2000/svg" xmlns:xlink="http://www.w3.org/1999/xlink" width="150" zoomAndPan="magnify" viewBox="0 0 112.5 112.499997" height="150" preserveAspectRatio="xMidYMid meet" version="1.0"><defs><clipPath id="378d8aae1d"><path d="M 21.171875 20.140625 L 90.613281 20.140625 L 90.613281 91 L 21.171875 91 Z M 21.171875 20.140625 " clip-rule="nonzero"/></clipPath></defs><path fill="#4a9b36" d="M 35.136719 42.660156 C 35.496094 46.964844 36.84375 55.957031 41.675781 60.789062 C 43.917969 63.03125 46.292969 63.796875 48.457031 63.820312 C 51.59375 63.867188 54.472656 62.082031 55.832031 59.25 C 57.1875 56.421875 56.777344 53.058594 54.773438 50.640625 C 54.773438 50.640625 54.773438 50.640625 54.773438 50.636719 C 54.484375 50.292969 54.167969 49.945312 53.816406 49.59375 C 52.707031 48.484375 51.378906 48.023438 49.871094 47.730469 C 48.507812 47.460938 46.988281 47.328125 45.371094 46.84375 C 41.894531 45.8125 39.125 43.3125 37.550781 41.613281 C 37.15625 41.179688 36.523438 41.039062 35.976562 41.273438 C 35.429688 41.507812 35.089844 42.066406 35.136719 42.660156 Z M 36.351562 42.5625 C 36.347656 42.492188 36.390625 42.421875 36.457031 42.394531 C 36.523438 42.367188 36.601562 42.382812 36.652344 42.4375 C 36.652344 42.4375 36.652344 42.441406 36.65625 42.441406 C 38.335938 44.257812 41.308594 46.910156 45.023438 48.015625 C 46.683594 48.507812 48.238281 48.652344 49.636719 48.925781 C 50.898438 49.171875 52.023438 49.527344 52.953125 50.457031 C 53.277344 50.78125 53.570312 51.101562 53.835938 51.417969 C 55.535156 53.472656 55.882812 56.324219 54.730469 58.722656 C 53.578125 61.125 51.136719 62.640625 48.472656 62.601562 C 46.574219 62.582031 44.503906 61.890625 42.535156 59.925781 C 37.917969 55.304688 36.695312 46.683594 36.351562 42.5625 Z M 36.351562 42.5625 " fill-opacity="1" fill-rule="evenodd"/><path fill="#4a9b36" d="M 76.886719 42.671875 C 76.886719 42.671875 76.886719 42.671875 76.886719 42.667969 C 76.933594 42.074219 76.597656 41.519531 76.050781 41.285156 C 75.503906 41.050781 74.867188 41.191406 74.46875 41.632812 C 72.902344 43.324219 70.132812 45.824219 66.65625 46.855469 C 65.035156 47.335938 63.519531 47.472656 62.152344 47.742188 C 60.648438 48.035156 59.320312 48.496094 58.207031 49.605469 C 57.859375 49.957031 57.539062 50.304688 57.25 50.648438 C 57.25 50.648438 57.25 50.652344 57.25 50.652344 C 55.25 53.070312 54.835938 56.433594 56.195312 59.261719 C 57.550781 62.09375 60.429688 63.875 63.570312 63.832031 C 65.734375 63.808594 68.105469 63.042969 70.351562 60.796875 C 75.179688 55.96875 76.53125 46.976562 76.886719 42.671875 Z M 75.671875 42.574219 C 75.332031 46.695312 74.109375 55.316406 69.488281 59.9375 C 67.523438 61.902344 65.449219 62.59375 63.554688 62.613281 C 63.554688 62.613281 63.550781 62.613281 63.550781 62.613281 C 60.886719 62.652344 58.445312 61.136719 57.292969 58.734375 C 56.144531 56.332031 56.492188 53.480469 58.1875 51.429688 C 58.453125 51.113281 58.746094 50.789062 59.070312 50.46875 C 60 49.539062 61.128906 49.183594 62.386719 48.9375 C 63.789062 48.660156 65.34375 48.519531 67.003906 48.023438 C 70.71875 46.921875 73.6875 44.269531 75.371094 42.453125 C 75.371094 42.453125 75.375 42.449219 75.375 42.449219 C 75.425781 42.394531 75.503906 42.378906 75.570312 42.40625 C 75.636719 42.433594 75.675781 42.503906 75.671875 42.574219 Z M 75.671875 42.574219 " fill-opacity="1" fill-rule="evenodd"/><path fill="#4a9b36" d="M 55.5 57.816406 C 55.5 57.816406 51.785156 58.03125 47.90625 55.921875 C 45.890625 54.828125 43.832031 53.113281 42.214844 50.433594 C 42.128906 50.285156 41.941406 50.234375 41.792969 50.320312 C 41.648438 50.40625 41.597656 50.59375 41.683594 50.738281 C 43.277344 53.621094 45.378906 55.492188 47.453125 56.722656 C 51.542969 59.140625 55.546875 59.035156 55.546875 59.035156 C 55.882812 59.019531 56.148438 58.738281 56.132812 58.402344 C 56.117188 58.0625 55.835938 57.800781 55.5 57.816406 Z M 55.5 57.816406 " fill-opacity="1" fill-rule="evenodd"/><path fill="#4a9b36" d="M 56.488281 59.046875 C 56.488281 59.046875 60.496094 59.152344 64.582031 56.734375 C 66.65625 55.503906 68.757812 53.632812 70.355469 50.75 C 70.441406 50.605469 70.390625 50.417969 70.242188 50.332031 C 70.097656 50.246094 69.90625 50.296875 69.824219 50.445312 C 68.207031 53.125 66.148438 54.839844 64.128906 55.933594 C 60.25 58.042969 56.539062 57.828125 56.539062 57.828125 C 56.203125 57.8125 55.917969 58.074219 55.90625 58.410156 C 55.890625 58.746094 56.152344 59.03125 56.488281 59.046875 Z M 56.488281 59.046875 " fill-opacity="1" fill-rule="evenodd"/><path fill="#4a9b36" d="M 65.851562 65.234375 C 62.917969 64.914062 60.640625 65.449219 58.859375 66.230469 C 58.191406 66.523438 57.59375 66.863281 57.058594 67.21875 C 56.871094 67.347656 56.769531 67.5625 56.792969 67.789062 L 57.203125 71.800781 C 57.230469 72.0625 57.421875 72.277344 57.675781 72.335938 C 57.929688 72.390625 58.195312 72.28125 58.332031 72.054688 C 58.769531 71.335938 59.503906 70.421875 60.679688 69.691406 C 61.90625 68.925781 63.535156 68.332031 65.722656 68.257812 C 66.554688 68.273438 67.246094 67.628906 67.277344 66.804688 C 67.308594 65.976562 66.671875 65.28125 65.851562 65.234375 Z M 58.046875 68.035156 C 58.441406 67.789062 58.875 67.554688 59.347656 67.347656 C 60.976562 66.632812 63.058594 66.152344 65.734375 66.449219 C 65.75 66.449219 65.765625 66.453125 65.777344 66.453125 C 65.941406 66.457031 66.066406 66.59375 66.058594 66.753906 C 66.054688 66.917969 65.917969 67.042969 65.757812 67.035156 C 65.742188 67.035156 65.726562 67.035156 65.710938 67.035156 C 63.25 67.117188 61.417969 67.796875 60.035156 68.65625 C 59.308594 69.109375 58.722656 69.621094 58.257812 70.128906 Z M 58.046875 68.035156 " fill-opacity="1" fill-rule="evenodd"/><path fill="#4a9b36" d="M 56.195312 59.261719 C 56.277344 59.433594 56.363281 59.597656 56.453125 59.761719 C 56.375 62.113281 56.457031 64.472656 56.695312 66.820312 C 56.695312 66.820312 57.261719 72.386719 57.261719 72.386719 C 56.550781 72.53125 55.882812 72.800781 55.285156 73.171875 C 55.28125 73.171875 55.28125 73.175781 55.277344 73.175781 C 55.265625 73.183594 55.25 73.183594 55.234375 73.175781 C 55.234375 73.175781 55.230469 73.175781 55.230469 73.171875 C 54.914062 72.984375 54.578125 72.820312 54.230469 72.683594 C 53.90625 71.601562 53.242188 70.089844 51.941406 68.800781 C 50.683594 67.554688 48.890625 66.484375 46.28125 66.144531 C 46.265625 66.144531 46.253906 66.140625 46.238281 66.140625 C 46.078125 66.128906 45.957031 65.992188 45.964844 65.832031 C 45.976562 65.667969 46.117188 65.546875 46.277344 65.558594 C 46.289062 65.558594 46.304688 65.558594 46.316406 65.558594 C 49.234375 65.546875 51.34375 66.5 52.90625 67.683594 C 53.359375 68.027344 53.761719 68.394531 54.121094 68.769531 C 54.285156 68.941406 54.535156 69.003906 54.757812 68.925781 C 54.984375 68.847656 55.144531 68.648438 55.167969 68.410156 L 55.332031 66.820312 C 55.570312 64.46875 55.652344 62.105469 55.570312 59.746094 C 55.664062 59.585938 55.75 59.421875 55.832031 59.25 C 55.976562 58.949219 55.847656 58.582031 55.546875 58.4375 C 55.242188 58.292969 54.878906 58.421875 54.730469 58.722656 C 54.640625 58.914062 54.539062 59.101562 54.433594 59.28125 C 54.371094 59.382812 54.34375 59.5 54.347656 59.617188 C 54.433594 61.976562 54.359375 64.34375 54.117188 66.695312 C 54.117188 66.695312 54.082031 67.0625 54.082031 67.0625 C 53.9375 66.941406 53.792969 66.828125 53.644531 66.714844 C 51.90625 65.398438 49.5625 64.328125 46.324219 64.339844 C 45.507812 64.300781 44.800781 64.929688 44.75 65.753906 C 44.699219 66.582031 45.320312 67.292969 46.144531 67.355469 C 48.417969 67.65625 49.984375 68.578125 51.082031 69.667969 C 52.324219 70.898438 52.890625 72.363281 53.144531 73.308594 C 53.195312 73.507812 53.347656 73.667969 53.542969 73.730469 C 53.914062 73.855469 54.269531 74.019531 54.597656 74.21875 C 55.003906 74.46875 55.527344 74.464844 55.9375 74.203125 C 56.539062 73.828125 57.238281 73.582031 57.988281 73.507812 C 58.148438 73.492188 58.296875 73.414062 58.402344 73.289062 C 58.503906 73.164062 58.550781 73 58.535156 72.839844 L 57.90625 66.695312 C 57.667969 64.347656 57.589844 61.984375 57.679688 59.625 C 57.683594 59.507812 57.652344 59.390625 57.59375 59.289062 C 57.484375 59.113281 57.386719 58.925781 57.292969 58.734375 C 57.148438 58.433594 56.785156 58.304688 56.480469 58.449219 C 56.175781 58.59375 56.046875 58.960938 56.195312 59.261719 Z M 56.195312 59.261719 " fill-opacity="1" fill-rule="evenodd"/><g clip-path="url(#378d8aae1d)"><path fill="#4a9b36" d="M 90.773438 34.398438 C 90.773438 31.496094 89.390625 28.765625 87.046875 27.050781 C 84.707031 25.335938 81.6875 24.835938 78.921875 25.710938 C 78.867188 25.730469 78.8125 25.746094 78.757812 25.761719 C 75.167969 26.898438 71.273438 26.546875 67.941406 24.792969 C 66.78125 24.179688 65.53125 23.523438 64.296875 22.871094 C 59.113281 20.140625 52.914062 20.144531 47.734375 22.882812 C 46.515625 23.527344 45.285156 24.179688 44.136719 24.785156 C 40.804688 26.542969 36.910156 26.898438 33.316406 25.765625 C 33.242188 25.746094 33.171875 25.722656 33.097656 25.699219 C 30.328125 24.828125 27.3125 25.328125 24.972656 27.042969 C 22.632812 28.757812 21.253906 31.488281 21.253906 34.386719 C 21.253906 39.753906 21.253906 46.277344 21.253906 52.339844 C 21.253906 64.484375 27.207031 75.855469 37.183594 82.773438 C 38.683594 83.8125 40.199219 84.863281 41.679688 85.890625 C 50.300781 91.867188 61.726562 91.867188 70.34375 85.890625 C 71.828125 84.863281 73.339844 83.8125 74.839844 82.773438 C 84.820312 75.855469 90.773438 64.484375 90.773438 52.339844 C 90.773438 46.28125 90.773438 39.765625 90.773438 34.398438 Z M 89.554688 34.398438 L 89.554688 52.339844 C 89.554688 64.082031 83.796875 75.082031 74.144531 81.773438 C 72.648438 82.8125 71.132812 83.863281 69.648438 84.890625 C 61.449219 90.578125 50.578125 90.578125 42.375 84.890625 C 40.894531 83.863281 39.378906 82.8125 37.878906 81.773438 C 28.230469 75.082031 22.472656 64.082031 22.472656 52.339844 C 22.472656 46.277344 22.472656 39.753906 22.472656 34.386719 C 22.472656 31.875 23.667969 29.511719 25.695312 28.027344 C 27.722656 26.539062 30.335938 26.109375 32.730469 26.863281 C 32.804688 26.886719 32.875 26.90625 32.949219 26.929688 C 36.851562 28.160156 41.085938 27.773438 44.707031 25.863281 C 45.855469 25.257812 47.085938 24.605469 48.304688 23.960938 C 53.128906 21.410156 58.898438 21.40625 63.726562 23.949219 C 64.960938 24.601562 66.210938 25.257812 67.371094 25.871094 C 70.992188 27.777344 75.222656 28.15625 79.125 26.925781 L 79.289062 26.875 C 81.683594 26.117188 84.300781 26.546875 86.328125 28.035156 C 88.355469 29.519531 89.554688 31.882812 89.554688 34.398438 Z M 89.554688 34.398438 " fill-opacity="1" fill-rule="evenodd"/></g><path fill="#4a9b36" d="M 30.9375 32.554688 C 30.355469 32.375 29.71875 32.476562 29.226562 32.839844 C 28.734375 33.203125 28.441406 33.777344 28.441406 34.386719 L 28.441406 52.339844 C 28.441406 62.125 33.238281 71.289062 41.28125 76.867188 C 42.78125 77.90625 44.296875 78.957031 45.777344 79.984375 C 51.933594 84.253906 60.09375 84.253906 66.25 79.984375 C 67.730469 78.957031 69.246094 77.90625 70.746094 76.867188 C 78.785156 71.289062 83.582031 62.125 83.582031 52.339844 L 83.582031 34.398438 C 83.582031 33.785156 83.292969 33.210938 82.796875 32.851562 C 82.304688 32.488281 81.667969 32.382812 81.085938 32.566406 L 81.082031 32.570312 C 81.082031 32.570312 80.925781 32.617188 80.925781 32.617188 L 80.929688 32.640625 L 80.925781 32.644531 L 80.921875 32.617188 C 75.5 34.332031 69.621094 33.804688 64.589844 31.152344 L 60.945312 29.234375 C 57.859375 27.609375 54.175781 27.609375 51.09375 29.238281 C 49.875 29.882812 48.644531 30.535156 47.496094 31.140625 C 42.476562 33.792969 36.605469 34.332031 31.1875 32.632812 L 30.945312 32.558594 Z M 81.292969 33.78125 L 81.453125 33.730469 C 81.664062 33.664062 81.898438 33.703125 82.078125 33.835938 C 82.257812 33.964844 82.363281 34.175781 82.363281 34.398438 L 82.363281 52.339844 C 82.363281 61.726562 77.761719 70.515625 70.050781 75.863281 C 68.550781 76.902344 67.035156 77.953125 65.554688 78.980469 C 59.816406 82.960938 52.210938 82.960938 46.472656 78.980469 C 44.988281 77.953125 43.476562 76.902344 41.976562 75.863281 C 34.261719 70.515625 29.660156 61.726562 29.660156 52.339844 C 29.660156 52.339844 29.660156 34.386719 29.660156 34.386719 C 29.660156 34.164062 29.769531 33.957031 29.949219 33.824219 C 30.128906 33.691406 30.359375 33.652344 30.570312 33.71875 L 30.789062 33.789062 C 36.527344 35.59375 42.75 35.027344 48.066406 32.21875 C 49.210938 31.613281 50.445312 30.960938 51.664062 30.316406 C 54.390625 28.878906 57.648438 28.875 60.375 30.3125 C 60.375 30.3125 64.019531 32.230469 64.019531 32.230469 C 69.339844 35.035156 75.558594 35.59375 81.292969 33.78125 Z M 81.292969 33.78125 " fill-opacity="1" fill-rule="evenodd"/><path fill="#4a9b36" d="M 40.285156 75.082031 C 40.109375 75.1875 39.996094 75.371094 39.984375 75.574219 C 39.96875 75.777344 40.058594 75.972656 40.222656 76.097656 C 40.570312 76.359375 40.921875 76.617188 41.28125 76.867188 C 42.78125 77.90625 44.296875 78.957031 45.777344 79.984375 C 51.933594 84.253906 60.09375 84.253906 66.25 79.984375 C 67.730469 78.957031 69.246094 77.90625 70.746094 76.867188 C 71.691406 76.210938 72.589844 75.503906 73.445312 74.753906 C 73.652344 74.570312 73.710938 74.265625 73.585938 74.019531 C 72.324219 71.5625 69.769531 69.882812 66.820312 69.882812 C 64.425781 69.882812 62.289062 70.996094 60.894531 72.730469 C 60.894531 72.730469 60.890625 72.734375 60.886719 72.738281 C 60.878906 72.753906 60.859375 72.757812 60.839844 72.75 C 60.839844 72.75 60.835938 72.746094 60.835938 72.746094 C 60.109375 72.4375 59.308594 72.265625 58.46875 72.265625 C 57.300781 72.265625 56.210938 72.597656 55.285156 73.171875 C 55.28125 73.171875 55.28125 73.175781 55.277344 73.175781 C 55.265625 73.183594 55.25 73.1875 55.234375 73.175781 C 55.234375 73.175781 55.230469 73.175781 55.230469 73.171875 C 54.261719 72.589844 53.128906 72.253906 51.917969 72.253906 C 49.53125 72.253906 47.445312 73.5625 46.34375 75.5 C 46.339844 75.503906 46.335938 75.511719 46.335938 75.515625 C 46.328125 75.523438 46.320312 75.53125 46.3125 75.53125 C 46.304688 75.535156 46.296875 75.53125 46.289062 75.527344 C 46.285156 75.523438 46.28125 75.519531 46.277344 75.515625 C 45.363281 74.796875 44.214844 74.367188 42.960938 74.367188 C 41.988281 74.367188 41.074219 74.628906 40.285156 75.082031 Z M 41.8125 75.75 C 42.175781 75.644531 42.5625 75.585938 42.960938 75.585938 C 43.925781 75.585938 44.8125 75.917969 45.519531 76.472656 C 45.808594 76.707031 46.1875 76.800781 46.550781 76.730469 C 46.917969 76.65625 47.230469 76.421875 47.410156 76.09375 C 48.300781 74.53125 49.988281 73.472656 51.917969 73.472656 C 52.898438 73.472656 53.816406 73.746094 54.597656 74.21875 C 55.003906 74.46875 55.527344 74.464844 55.9375 74.203125 C 56.667969 73.75 57.539062 73.484375 58.46875 73.484375 C 59.136719 73.484375 59.777344 73.621094 60.355469 73.867188 C 60.878906 74.097656 61.5 73.941406 61.851562 73.484375 C 63.015625 72.035156 64.808594 71.101562 66.820312 71.101562 C 69.125 71.101562 71.144531 72.328125 72.265625 74.160156 C 71.558594 74.761719 70.820312 75.328125 70.050781 75.863281 C 68.550781 76.902344 67.035156 77.953125 65.554688 78.980469 C 59.816406 82.960938 52.210938 82.960938 46.472656 78.980469 C 44.988281 77.953125 43.476562 76.902344 41.976562 75.863281 Z M 41.8125 75.75 " fill-opacity="1" fill-rule="evenodd"/></svg>